<svg width="84" height="81" viewBox="0 0 84 81" fill="none" xmlns="http://www.w3.org/2000/svg">
<path d="M31.2949 12.7078C35.2868 12.4298 51.6014 9.81958 55.5706 12.7079L56.7857 13.361C62.5674 15.4589 69.7199 18.9735 73.9238 27.2993C76.41 35.6614 77.0241 42.2219 74.2992 49.2404C72.9611 52.687 70.6759 57.3405 67.9358 59.7458C65.0664 62.2646 61.1046 64.5239 57.7654 66.4576C54.6781 68.2454 50.233 69.1557 46.7854 70.1151C43.7303 70.9652 40.2194 70.3783 37.1319 70.1167C30.0385 69.5157 17.7896 65.115 13.523 58.4569C10.8242 54.2453 11.4024 53.7403 9.21628 49.2404C7.47579 45.6578 9.05108 42.1207 9.21628 38.0855C9.37432 34.2254 9.40484 30.6361 11.3402 27.1263C12.9663 24.1772 15.0043 21.0379 17.711 18.9735C21.3465 16.2006 26.6153 13.0338 31.2949 12.7078Z" fill="#9FF730"/>
<path d="M55.5716 12.7079C51.6023 9.81958 35.2877 12.4298 31.2959 12.7078C26.6163 13.0338 21.3475 16.2006 17.712 18.9734C15.0052 21.0379 12.9673 24.1772 11.3412 27.1263C9.40582 30.6361 9.3753 34.2254 9.21726 38.0855C9.05205 42.1207 7.47676 45.6578 9.21726 49.2404C11.4034 53.7403 10.8252 54.2453 13.524 58.4569C17.7905 65.115 30.0395 69.5157 37.1329 70.1167C40.2203 70.3783 43.7313 70.9652 46.7864 70.1151C50.234 69.1557 54.679 68.2454 57.7664 66.4576C61.1056 64.5239 65.0674 62.2646 67.9368 59.7458C70.6769 57.3405 72.9621 52.687 74.3002 49.2404C77.025 42.2219 76.411 35.6614 73.9248 27.2993C69.7209 18.9735 62.5684 15.4589 56.7866 13.361" stroke="black" stroke-width="5" stroke-linecap="round"/>
<path d="M50.2798 31.7547C50.9804 32.1745 51.5394 32.6264 52.1327 33.165C52.6488 33.6336 53.1426 34.0968 53.8747 34.2479C54.3882 34.3539 54.5247 34.0898 54.9107 33.7394" stroke="black" stroke-width="5" stroke-linecap="round"/>
<path d="M34 43.1381C35.1823 44.1398 35.7691 45.0416 37.4627 45.7039C39.1155 46.3502 43.596 45.8146 45.0805 45.2762C45.8559 44.9951 47.1272 44.3218 47.8506 43.9934C49.0469 43.4502 49.755 43.022 50.8368 42.3958C51.6463 41.9272 52.3441 41.54 53 41" stroke="black" stroke-width="5" stroke-linecap="round"/>
<path d="M33.8063 31.4428C32.2297 33.0838 30.314 34.1541 28 34.3007" stroke="black" stroke-width="5" stroke-linecap="round"/>
</svg>
