<svg width="84" height="81" viewBox="0 0 84 81" fill="none" xmlns="http://www.w3.org/2000/svg">
<path d="M31.2949 12.7078C35.2868 12.4298 51.6014 9.81958 55.5706 12.7079L56.7857 13.361C62.5674 15.4589 69.7199 18.9735 73.9238 27.2993C76.41 35.6614 77.0241 42.2219 74.2992 49.2404C72.9611 52.687 70.6759 57.3405 67.9358 59.7458C65.0664 62.2646 61.1046 64.5239 57.7654 66.4576C54.6781 68.2454 50.233 69.1557 46.7854 70.1151C43.7303 70.9652 40.2194 70.3783 37.1319 70.1167C30.0385 69.5157 17.7896 65.115 13.523 58.4569C10.8242 54.2453 11.4024 53.7403 9.21628 49.2404C7.47579 45.6578 9.05108 42.1207 9.21628 38.0855C9.37432 34.2254 9.40484 30.6361 11.3402 27.1263C12.9663 24.1772 15.0043 21.0379 17.711 18.9735C21.3465 16.2006 26.6153 13.0338 31.2949 12.7078Z" fill="#37F0B6"/>
<path d="M55.5706 12.7079C51.6014 9.81958 35.2868 12.4298 31.2949 12.7078C26.6153 13.0338 21.3465 16.2006 17.711 18.9734C15.0043 21.0379 12.9663 24.1772 11.3402 27.1263C9.40484 30.6361 9.37432 34.2254 9.21628 38.0855C9.05108 42.1207 7.47579 45.6578 9.21628 49.2404C11.4024 53.7403 10.8242 54.2453 13.523 58.4569C17.7896 65.115 30.0385 69.5157 37.1319 70.1167C40.2194 70.3783 43.7303 70.9652 46.7854 70.1151C50.233 69.1557 54.6781 68.2454 57.7654 66.4576C61.1046 64.5239 65.0664 62.2646 67.9358 59.7458C70.6759 57.3405 72.9611 52.687 74.2992 49.2404C77.0241 42.2219 76.41 35.6614 73.9238 27.2993C69.7199 18.9735 62.5674 15.4589 56.7857 13.361" stroke="black" stroke-width="5" stroke-linecap="round"/>
<path d="M30.2231 40.2472C30.6013 39.9327 31.3204 39.3255 31.7405 39.0065C31.9789 38.8255 32.2382 38.6092 32.5501 38.5895C32.9963 38.5613 33.4065 38.7988 33.7807 39.0126C34.1753 39.2381 34.5468 39.4899 34.8689 39.812C35.0999 40.043 35.2377 39.8988 35.4994 39.7387C36.6485 39.0359 38.0054 37.8558 39.4414 38.3474C40.0326 38.5499 40.5594 38.9369 41.0646 39.2953C41.3187 39.4756 41.5606 39.6704 41.807 39.8608C41.8986 39.9316 42.0246 40.0488 42.1426 40.0845C42.3534 40.1484 42.7092 39.7862 42.8443 39.694C43.5071 39.2419 44.3513 38.7206 45.1631 38.6078C45.5085 38.5598 45.7643 38.841 46.0073 39.0431C46.256 39.25 46.5026 39.4594 46.7538 39.6635C46.8549 39.7456 47.0707 39.9767 47.2155 40.0072C47.2948 40.0239 47.4045 39.9161 47.4433 39.8852C47.751 39.6401 48.0475 39.4002 48.3912 39.2038C49.067 38.8176 49.8019 38.6034 50.5737 38.7868C51.4713 39 52.4126 39.4806 53.0695 40.1374" stroke="black" stroke-width="5" stroke-linecap="round"/>
<path d="M27.6582 29.278C28.41 29.2655 29.5086 29.2392 30.2846 29.2538C33.4064 29.3127 29.3943 29.2486 31.5012 29.3505" stroke="black" stroke-width="5" stroke-linecap="round"/>
<path d="M50.4985 29.3868C51.8306 29.7134 53.1901 29.9968 54.4986 30.414C54.5779 30.4393 54.64 30.4723 54.7041 30.5107" stroke="black" stroke-width="5" stroke-linecap="round"/>
</svg>
