<svg width="84" height="81" viewBox="0 0 84 81" fill="none" xmlns="http://www.w3.org/2000/svg">
<path d="M31.2949 12.7078C35.2868 12.4298 51.6014 9.81958 55.5706 12.7079L56.7857 13.361C62.5674 15.4589 69.7199 18.9735 73.9238 27.2993C76.41 35.6614 77.0241 42.2219 74.2992 49.2404C72.9611 52.687 70.6759 57.3405 67.9358 59.7458C65.0664 62.2646 61.1046 64.5239 57.7654 66.4576C54.6781 68.2454 50.233 69.1557 46.7854 70.1151C43.7303 70.9652 40.2194 70.3783 37.1319 70.1167C30.0385 69.5157 17.7896 65.115 13.523 58.4569C10.8242 54.2453 11.4024 53.7403 9.21628 49.2404C7.47579 45.6578 9.05108 42.1207 9.21628 38.0855C9.37432 34.2254 9.40484 30.6361 11.3402 27.1263C12.9663 24.1772 15.0043 21.0379 17.711 18.9735C21.3465 16.2006 26.6153 13.0338 31.2949 12.7078Z" fill="#2A78AF"/>
<path d="M55.5706 12.7079C51.6014 9.81958 35.2868 12.4298 31.2949 12.7078C26.6153 13.0338 21.3465 16.2006 17.711 18.9734C15.0043 21.0379 12.9663 24.1772 11.3402 27.1263C9.40484 30.6361 9.37432 34.2254 9.21628 38.0855C9.05108 42.1207 7.47579 45.6578 9.21628 49.2404C11.4024 53.7403 10.8242 54.2453 13.523 58.4569C17.7896 65.115 30.0385 69.5157 37.1319 70.1167C40.2194 70.3783 43.7303 70.9652 46.7854 70.1151C50.233 69.1557 54.6781 68.2454 57.7654 66.4576C61.1046 64.5239 65.0664 62.2646 67.9358 59.7458C70.6759 57.3405 72.9611 52.687 74.2992 49.2404C77.0241 42.2219 76.41 35.6614 73.9238 27.2993C69.7199 18.9735 62.5674 15.4589 56.7857 13.361" stroke="black" stroke-width="5" stroke-linecap="round"/>
<path d="M24 28.9708C24.5604 29.0064 25.1069 29.0335 25.6446 29.2107C26.0885 29.357 26.4968 29.623 26.9095 29.8373C27.7674 30.2828 28.6165 30.7543 29.5069 31.1325C30.2591 31.4521 31.0259 31.7499 31.7572 32.1156" stroke="black" stroke-width="5" stroke-linecap="round"/>
<path d="M26.0967 32.9542C26.2102 32.5759 26.6849 32.0704 26.8934 31.7894C27.7065 30.6937 28.5577 29.6377 29.4838 28.6353C29.9424 28.1389 30.4046 27.6459 30.8628 27.1491C30.927 27.0795 30.9668 27.0389 31.0445 27" stroke="black" stroke-width="5" stroke-linecap="round"/>
<path d="M49 28.0966C50.0156 28.228 51.0718 28.6392 52.0097 29.0353C52.9723 29.4419 53.8988 29.9892 54.8144 30.4913C55.789 31.0257 56.8472 31.5404 57.6797 32.2896" stroke="black" stroke-width="5" stroke-linecap="round"/>
<path d="M51.5161 32.4574C53.6204 30.148 55.7279 27.8907 58.2251 26" stroke="black" stroke-width="5" stroke-linecap="round"/>
<path d="M33.7739 39.6395C37.3318 39.531 40.8896 39.398 44.4478 39.3016C45.0361 39.2857 45.6226 39.3072 46.2093 39.3515C46.8492 39.3998 47.4929 39.4261 48.1313 39.49" stroke="black" stroke-width="5" stroke-linecap="round"/>
</svg>
