<svg width="84" height="81" viewBox="0 0 84 81" fill="none" xmlns="http://www.w3.org/2000/svg">
<path d="M31.2949 12.7078C35.2868 12.4298 51.6014 9.81958 55.5706 12.7079L56.7857 13.361C62.5674 15.4589 69.7199 18.9735 73.9238 27.2993C76.41 35.6614 77.0241 42.2219 74.2992 49.2404C72.9611 52.687 70.6759 57.3405 67.9358 59.7458C65.0664 62.2646 61.1046 64.5239 57.7654 66.4576C54.6781 68.2454 50.233 69.1557 46.7854 70.1151C43.7303 70.9652 40.2194 70.3783 37.1319 70.1167C30.0385 69.5157 17.7896 65.115 13.523 58.4569C10.8242 54.2453 11.4024 53.7403 9.21628 49.2404C7.47579 45.6578 9.05108 42.1207 9.21628 38.0855C9.37432 34.2254 9.40484 30.6361 11.3402 27.1263C12.9663 24.1772 15.0043 21.0379 17.711 18.9735C21.3465 16.2006 26.6153 13.0338 31.2949 12.7078Z" fill="#69C9FF" fill-opacity="0.92"/>
<path d="M55.5706 12.7079C51.6014 9.81958 35.2868 12.4298 31.2949 12.7078C26.6153 13.0338 21.3465 16.2006 17.711 18.9734C15.0043 21.0379 12.9663 24.1772 11.3402 27.1263C9.40484 30.6361 9.37432 34.2254 9.21628 38.0855C9.05108 42.1207 7.47579 45.6578 9.21628 49.2404C11.4024 53.7403 10.8242 54.2453 13.523 58.4569C17.7896 65.115 30.0385 69.5157 37.1319 70.1167C40.2194 70.3783 43.7303 70.9652 46.7854 70.1151C50.233 69.1557 54.6781 68.2454 57.7654 66.4576C61.1046 64.5239 65.0664 62.2646 67.9358 59.7458C70.6759 57.3405 72.9611 52.687 74.2992 49.2404C77.0241 42.2219 76.41 35.6614 73.9238 27.2993C69.7199 18.9735 62.5674 15.4589 56.7857 13.361" stroke="black" stroke-width="5" stroke-linecap="round"/>
<path d="M30 32.3231C30.3853 31.8155 30.761 31.4832 31.1843 31.173C31.245 31.1284 31.295 31.119 31.3231 31" stroke="black" stroke-width="5" stroke-linecap="round"/>
<path d="M51 31C51.6939 31.5155 52.516 31.8072 53.2633 32.1808" stroke="black" stroke-width="5" stroke-linecap="round"/>
<path d="M31 40.5726C33.7159 41.119 36.12 41.4783 38.7162 40.2448C39.7537 39.7519 40.5512 38.6095 41.7422 39.1353C44.7442 40.4605 48.3263 40.6332 51.4252 39.6648" stroke="black" stroke-width="5" stroke-linecap="round"/>
</svg>
