<svg width="85" height="82" viewBox="0 0 85 82" fill="none" xmlns="http://www.w3.org/2000/svg">
<path d="M32.2949 13.7078C36.2868 13.4298 52.6014 10.8196 56.5706 13.7079L57.7857 14.361C63.5674 16.4589 70.7199 19.9735 74.9238 28.2993C77.41 36.6614 78.0241 43.2219 75.2992 50.2404C73.9611 53.687 71.6759 58.3405 68.9358 60.7458C66.0664 63.2646 62.1046 65.5239 58.7654 67.4576C55.6781 69.2454 51.233 70.1557 47.7854 71.1151C44.7303 71.9652 41.2194 71.3783 38.1319 71.1167C31.0385 70.5157 18.7896 66.115 14.523 59.4569C11.8242 55.2453 12.4024 54.7403 10.2163 50.2404C8.47579 46.6578 10.0511 43.1207 10.2163 39.0855C10.3743 35.2254 10.4048 31.6361 12.3402 28.1263C13.9663 25.1772 16.0043 22.0379 18.711 19.9735C22.3465 17.2006 27.6153 14.0338 32.2949 13.7078Z" fill="#FFD648"/>
<path d="M55.5706 12.7079C51.6014 9.81958 35.2868 12.4298 31.2949 12.7078C26.6153 13.0338 21.3465 16.2006 17.711 18.9734C15.0043 21.0379 12.9663 24.1772 11.3402 27.1263C9.40484 30.6361 9.37432 34.2254 9.21628 38.0855C9.05108 42.1207 7.47579 45.6578 9.21628 49.2404C11.4024 53.7403 10.8242 54.2453 13.523 58.4569C17.7896 65.115 30.0385 69.5157 37.1319 70.1167C40.2194 70.3783 43.7303 70.9652 46.7854 70.1151C50.233 69.1557 54.6781 68.2454 57.7654 66.4576C61.1046 64.5239 65.0664 62.2646 67.9358 59.7458C70.6759 57.3405 72.9611 52.687 74.2992 49.2404C77.0241 42.2219 76.41 35.6614 73.9238 27.2993C69.7199 18.9735 62.5674 15.4589 56.7857 13.361" stroke="black" stroke-width="5" stroke-linecap="round"/>
<path d="M30 33C30.2912 33 30.5752 33 30.8951 33C30.941 33 30.9788 33 31 33" stroke="black" stroke-width="5" stroke-linecap="round"/>
<path d="M52 33C52.3066 33 52.6698 33 53 33" stroke="black" stroke-width="5" stroke-linecap="round"/>
<path d="M32 42C37 43.5 43.9881 43.4453 49.5 42.7512" stroke="black" stroke-width="5" stroke-linecap="round"/>
</svg>
