<svg width="84" height="81" viewBox="0 0 84 81" fill="none" xmlns="http://www.w3.org/2000/svg">
<path d="M31.2949 12.7078C35.2868 12.4298 51.6014 9.81958 55.5706 12.7079L56.7857 13.361C62.5674 15.4589 69.7199 18.9735 73.9238 27.2993C76.41 35.6614 77.0241 42.2219 74.2992 49.2404C72.9611 52.687 70.6759 57.3405 67.9358 59.7458C65.0664 62.2646 61.1046 64.5239 57.7654 66.4576C54.6781 68.2454 50.233 69.1557 46.7854 70.1151C43.7303 70.9652 40.2194 70.3783 37.1319 70.1167C30.0385 69.5157 17.7896 65.115 13.523 58.4569C10.8242 54.2453 11.4024 53.7403 9.21628 49.2404C7.47579 45.6578 9.05108 42.1207 9.21628 38.0855C9.37432 34.2254 9.40484 30.6361 11.3402 27.1263C12.9663 24.1772 15.0043 21.0379 17.711 18.9735C21.3465 16.2006 26.6153 13.0338 31.2949 12.7078Z" fill="#A78CBE"/>
<path d="M55.5706 12.7079C51.6014 9.81958 35.2868 12.4298 31.2949 12.7078C26.6153 13.0338 21.3465 16.2006 17.711 18.9734C15.0043 21.0379 12.9663 24.1772 11.3402 27.1263C9.40484 30.6361 9.37432 34.2254 9.21628 38.0855C9.05108 42.1207 7.47579 45.6578 9.21628 49.2404C11.4024 53.7403 10.8242 54.2453 13.523 58.4569C17.7896 65.115 30.0385 69.5157 37.1319 70.1167C40.2194 70.3783 43.7303 70.9652 46.7854 70.1151C50.233 69.1557 54.6781 68.2454 57.7654 66.4576C61.1046 64.5239 65.0664 62.2646 67.9358 59.7458C70.6759 57.3405 72.9611 52.687 74.2992 49.2404C77.0241 42.2219 76.41 35.6614 73.9238 27.2993C69.7199 18.9735 62.5674 15.4589 56.7857 13.361" stroke="black" stroke-width="5" stroke-linecap="round"/>
<path d="M30.8108 32.6222C30.4773 32.8784 30.484 32.8892 30.0131 33.137C29.1117 33.6112 28.1567 34.0509 27.1519 34.2523C26.74 34.3348 26.5105 34.3395 26.1269 34.2553C26.0201 34.2319 25.8869 34.2387 25.8138 34.1575C25.5438 33.8575 25.8543 33.0999 25.9252 32.9293C26.3089 32.0055 27.0401 30.8141 27.6711 30.0635C28.0125 29.6575 28.3987 29.2862 28.8135 28.9557C29.4932 28.4142 29.9479 28.2553 30.7356 28.0255C31.2394 27.8785 31.8111 27.7538 32.3431 27.7877C32.8066 27.8172 33.2513 28.0056 33.6571 28.2167C34.5535 28.683 35.6541 29.3636 36.0818 30.3314C36.4998 31.2771 36.1587 32.5294 35.7326 33.4109C35.4309 34.0352 35.0429 34.7361 34.4954 35.1809C33.784 35.7589 33.2163 36.4226 32.3431 36.6739C31.4663 36.9263 30.3289 37.2232 29 37.5C27.6711 37.7768 26.7429 38.0702 25.5 38C24.3449 37.9348 22.8579 37.0117 22 36.5C21.1421 35.9883 20.9859 35.8882 20.8529 35.2141C20.5754 33.8079 20.9158 32.3313 21.5497 31.0719C21.9228 30.3307 22.3883 29.5931 22.933 28.9647C23.2703 28.5755 23.6764 28.2615 24.0919 27.9623" stroke="black" stroke-width="3" stroke-linecap="round"/>
<path d="M55.3836 33.3537C56.1511 32.685 56.3585 32.2204 57.5209 32.3844C58.4069 32.5095 59.6737 33.2951 60.3445 33.8384C60.7077 34.1325 61.2343 34.6328 61.2596 35.181C61.2674 35.3488 61.1763 35.5069 61.1211 35.6656C60.9915 36.0387 60.8711 36.2916 60.6561 36.6214C60.2517 37.2413 59.6274 37.7846 58.9748 38.131C57.9593 38.6701 56.773 38.5031 55.6771 38.3794C53.4984 38.1334 50.1621 37.6041 49.7724 34.9341C49.6155 33.8587 49.7012 32.6958 49.95 31.6409C50.1569 30.7635 50.4436 29.7805 50.9223 29.0069C51.2613 28.4591 51.7702 28.0466 52.289 27.6779C53.1531 27.0636 54.1022 26.5444 55.1096 26.2073C55.8519 25.959 56.6786 25.7725 57.4637 25.8958C58.1679 26.0064 58.8257 26.3672 59.4595 26.6739C60.7125 27.2804 62.1733 27.8349 62.9755 29.031C63.1847 29.3429 63.4092 29.7005 63.4842 30.0755" stroke="black" stroke-width="3" stroke-linecap="round"/>
<path d="M36 41.5951C39.508 41.0104 43.0839 40.7651 46.6063 41.2831" stroke="black" stroke-width="5" stroke-linecap="round"/>
</svg>
