<svg width="84" height="81" viewBox="0 0 84 81" fill="none" xmlns="http://www.w3.org/2000/svg">
<path d="M31.2949 12.7078C35.2868 12.4298 51.6014 9.81958 55.5706 12.7079L56.7857 13.361C62.5674 15.4589 69.7199 18.9735 73.9238 27.2993C76.41 35.6614 77.0241 42.2219 74.2992 49.2404C72.9611 52.687 70.6759 57.3405 67.9358 59.7458C65.0664 62.2646 61.1046 64.5239 57.7654 66.4576C54.6781 68.2454 50.233 69.1557 46.7854 70.1151C43.7303 70.9652 40.2194 70.3783 37.1319 70.1167C30.0385 69.5157 17.7896 65.115 13.523 58.4569C10.8242 54.2453 11.4024 53.7403 9.21628 49.2404C7.47579 45.6578 9.05108 42.1207 9.21628 38.0855C9.37432 34.2254 9.40484 30.6361 11.3402 27.1263C12.9663 24.1772 15.0043 21.0379 17.711 18.9735C21.3465 16.2006 26.6153 13.0338 31.2949 12.7078Z" fill="#FF559E" stroke="black" stroke-linecap="round"/>
<path d="M55.5716 12.7079C51.6023 9.81958 35.2877 12.4298 31.2959 12.7078C26.6163 13.0338 21.3475 16.2006 17.712 18.9734C15.0052 21.0379 12.9673 24.1772 11.3412 27.1263C9.40582 30.6361 9.3753 34.2254 9.21726 38.0855C9.05205 42.1207 7.47676 45.6578 9.21726 49.2404C11.4034 53.7403 10.8252 54.2453 13.524 58.4569C17.7905 65.115 30.0395 69.5157 37.1329 70.1167C40.2203 70.3783 43.7313 70.9652 46.7864 70.1151C50.234 69.1557 54.679 68.2454 57.7664 66.4576C61.1056 64.5239 65.0674 62.2646 67.9368 59.7458C70.6769 57.3405 72.9621 52.687 74.3002 49.2404C77.025 42.2219 76.411 35.6614 73.9248 27.2993C69.7209 18.9735 62.5684 15.4589 56.7866 13.361" stroke="black" stroke-width="5" stroke-linecap="round"/>
<path d="M29.5572 31.5363C29.2647 31.075 28.7948 30.3029 28.3291 31.0681C27.7306 32.0512 28.8159 33.0308 29.3806 33.7085C29.6627 34.047 29.5214 34.2422 30.0791 34.1307C30.7803 33.9904 31.7491 33.5991 32.2283 33.0561C32.7846 32.4255 33.0365 31.5506 33.349 30.7917C33.7809 29.7426 33.8118 29.6575 32.7349 30.0165C31.3913 30.4643 30.4952 31.3327 29.9717 32.6416" stroke="black" stroke-width="5" stroke-linecap="round"/>
<path d="M53.7942 30.9547C53.316 30.4968 53.1013 30.4484 53.0921 31.2667C53.0854 31.8641 53.1781 32.5705 53.4666 33.1077C53.7854 33.7016 54.5701 33.3095 55.0111 33.0921C56.0454 32.5823 57.0573 31.7108 57.2499 30.5335C57.2836 30.3276 57.3622 30.1434 57.0705 30.1434C56.5801 30.1434 56.0775 30.3376 55.6547 30.5725C55.3445 30.7448 54.7611 30.9325 54.6367 31.3057" stroke="black" stroke-width="5" stroke-linecap="round"/>
<path d="M38.981 35.3777C39.7307 35.834 40.4785 36.2933 41.2276 36.7507C41.4292 36.8738 41.6426 37.0338 41.8828 37.0783C42.4034 37.1747 42.881 37.0843 43.3806 36.9301C44.5469 36.5701 45.8726 36.155 46.8441 35.3777" stroke="black" stroke-width="5" stroke-linecap="round"/>
</svg>
